# xmcd
#
# Track frame offsets: 
#        150
#        17290
#        29148
#        44104
#        55140
#        67212
#        82051
#        94255
#        107994
#        122460
#
# Disc length: 1895 seconds
#
# Revision: 0
# Processed by: cddbd v1.5.2PL0 Copyright (c) Steve Scherf et al.
# Submitted via: ExactAudioCopy v1.2
#
DISCID=8e07650a
DTITLE=Kelly Willis - Back Being Blue
DYEAR=2018
DGENRE=Country
TTITLE0=Back Being Blue
TTITLE1=Only You
TTITLE2=Fool's Paradise
TTITLE3=Modern World
TTITLE4=Freewheeling
TTITLE5=Afternoon's Gone Blind
TTITLE6=What The Heart Doesn't Know
TTITLE7=I'm A Lover (Not A Fighter)
TTITLE8=We'll Do It For Love Next Time
TTITLE9=Don't Step Away
EXTD=
EXTT0=
EXTT1=
EXTT2=
EXTT3=
EXTT4=
EXTT5=
EXTT6=
EXTT7=
EXTT8=
EXTT9=
PLAYORDER=
